# xmcd
#
# Track frame offsets:
#	150
#	19711
#	34352
#	50379
#	67407
#	79917
#	97734
#	114513
#	130824
#	147350
#	162230
#	175751
#	192363
#	208106
#	219438
#
# Disc length: 3210
#
# Revision: 1
# Processed by: cddbd v1.5.1PL0 Copyright (c) Steve Scherf et al.
# Submitted via: FreeRIP 2.00 
# Normalized: r0:TRMNUM
#
DISCID=d80c880f
DTITLE=hear'say - Popstars
DYEAR=2001
DGENRE=Pop
TTITLE0=Pure And Simple
TTITLE1=The way tou your love
TTITLE2=one step closer
TTITLE3=another lover
TTITLE4=one
TTITLE5=not the kind
TTITLE6=Make it happen
TTITLE7=Breathe
TTITLE8=Carried away
TTITLE9=Sweet Alibi
TTITLE10=I dont want you anyway
TTITLE11=Colour blind
TTITLE12=Love will never end
TTITLE13=Monday monday
TTITLE14=Bridge over troubled water
EXTD=
EXTT0=
EXTT1=
EXTT2=
EXTT3=
EXTT4=
EXTT5=
EXTT6=
EXTT7=
EXTT8=
EXTT9=
EXTT10=
EXTT11=
EXTT12=
EXTT13=
EXTT14=
PLAYORDER=
